<?xml version="1.0" encoding="UTF-8"?>
<svg id="Layer_1" xmlns="http://www.w3.org/2000/svg" version="1.1" viewBox="0 0 1510 1041">
  <!-- Generator: Adobe Illustrator 30.4.0, SVG Export Plug-In . SVG Version: 2.1.4 Build 226)  -->
  <defs>
    <style>
      .st0 {
        stroke-miterlimit: 10;
      }

      .st0, .st1 {
        fill: none;
        stroke: #034eae;
        stroke-width: 41px;
      }

      .st2 {
        fill: #f9e55e;
      }

      .st3 {
        fill: #6ebdf9;
      }

      .st4 {
        fill: #127ef5;
      }

      .st5 {
        fill: #fcc821;
      }

      .st6 {
        fill: #fff;
      }

      .st7 {
        fill: #034eae;
      }

      .st8 {
        fill: #fefefe;
      }

      .st1 {
        stroke-linecap: round;
        stroke-linejoin: round;
      }

      .st9 {
        fill: #0765d4;
      }

      .st10 {
        fill: #fdfdfd;
      }
    </style>
  </defs>
  <path class="st5" d="M546.09,843.27c-30.27,0-62.77-3.76-93.21-14.71-16.6-5.97-31.98-14.22-46.97-25.2l-8.52-5.23-.82-.57c-12.6-8.82-21.89-20.86-27.13-35.08-7.34-10.74-13.95-22.22-20.12-34.92l-.16-.33c-13.14-27.82-22.11-56.89-27.4-88.88-7.15-43.18-4.72-86.3,7.23-128.15,14.25-49.9,40.95-94.43,77.3-128.96l-18.36-57.22c-6.76-21.07-2.83-44.01,10.51-61.37,7.79-10.13,17.99-18.18,31.19-24.6,24.53-11.93,50.4-19.42,76.9-22.27,23.89-2.56,46.41.08,66.6,7.67,8.35-7.52,19.85-14.27,35.69-18.83,40.25-11.59,81.69-12.4,113.68-2.22,9.13,2.9,17.58,6.85,25.32,11.81,9.04-7.84,20.6-14.37,35.74-18.03,18.98-4.58,38.75-4.78,60.43-.61,10.52,2.03,20.12,5.72,28.58,10.95,6.98-2.6,15.13-4.4,24.63-4.88,13.75-.71,29.42,1.47,46.56,6.47l1.4.44c13.53,4.6,24.68,12.91,32.44,23.72,8.19-6.2,17.81-10.23,28.45-11.75,17.05-2.45,33.6,1.95,44.56,5.47,12.01,3.85,25.86,9.16,37.56,19.28,14.61,12.65,22.34,29.99,22.37,50.15v3.58s-5.88,27.18-5.88,27.18l-15.86,52.95c72.01,65.01,100.31,165.85,73.96,268.88-11.82,46.21-32.74,86.7-62.2,120.37l-.65.74-14.9,15.12c-14.27,14.47-37.99,29.74-59.04,37.99-22.79,8.93-46.17,14.1-71.49,15.78-23.94,1.59-48.17.93-76.26-2.08l-73.77-7.9c-31.88-3.41-62.43-4.58-93.41-3.57-16.24.53-31.43,2.06-47.78,4.8l-47.18,7.92c-19.94,3.35-44.15,6.08-69.98,6.08ZM434.18,742.63l9.01,5.52,1.19.88c10.2,7.58,20.06,12.95,31.03,16.9,42.88,15.43,94.18,11.57,129.66,5.62l47.18-7.92c19.35-3.25,37.34-5.05,56.62-5.68,34.1-1.11,67.68.17,102.66,3.91l73.77,7.9c24.18,2.59,44.76,3.17,64.77,1.85,18.4-1.22,35.28-4.93,51.61-11.33,12.34-4.84,28.13-14.83,35.93-22.75l13.49-13.69c22.19-25.6,38.06-56.66,47.19-92.32,10.5-41.05,10.05-82.43-1.31-119.67-11.61-38.05-34.53-70.71-66.3-94.44l-18.64-13.92,28.13-93.92,3.22-14.88c-1.73-1.07-5.41-2.87-13.1-5.33-6.72-2.16-10.65-2.8-12.76-2.96l-12.65,24.24-27.02-9.22c-7.76-2.65-14.08-3.71-19.88-3.36l-30.03,1.85-4.64-28.43c-16.98-4.7-25.53-3.49-27.61-2.55l-28.38,38.07-26.01-40.12c-1.4-2.16-3.79-4.79-9.89-5.97-12.32-2.37-22.56-2.39-32.24-.05-6.02,1.46-9.78,2.97-16.86,17.2l-9.04,18.17-20.3.28c-11.67.15-23.09-5.88-30.58-16.16-5.27-7.24-11.66-11.87-20.09-14.55-19.49-6.2-47.56-5.17-75.09,2.75-6.43,1.85-8.92,3.79-9.59,4.4l-8.8,54.62-44.17-33.58c-16.71-12.7-36.98-13.57-51.05-12.06-18.83,2.02-37.3,7.38-54.89,15.94-4.93,2.4-6.66,4.17-7.52,5.3.02-.01-.02.17.08.51l31.73,98.88-29.52,25.62c-28.43,26.52-49.36,61.18-60.52,100.28-9.22,32.31-11.1,65.62-5.57,99.01,4.26,25.76,11.41,49.04,21.84,71.16,5.4,11.11,10.92,20.47,17.35,29.47l3.45,4.82,1.57,5.71c.48,1.75,1.22,2.92,2.56,3.98ZM1018.54,284.58h0s0,0,0,0ZM617.69,272.68s0,0,0,0t0,0ZM941.37,624.03c-1.7-.26-3.78-.39-6.18-.39l.09-66.54c5.68,0,11.06.39,16,1.13l-9.91,65.8ZM944.07,622.84l.48-1.35,1.24-2.23-1.72,3.58ZM945.39,619.17l20.58-57.3c2.13.76,4.2,1.63,6.17,2.58l-25.46,52.96-1.29,1.76ZM947.23,616.66l28.05-50.59c2.17,1.2,4.26,2.54,6.22,3.98l-34.27,46.61Z"/>
  <path class="st10" d="M542.3,825.24c-28.41,0-58.71-3.46-86.85-13.51-15.06-5.38-29.04-12.88-42.72-22.91l-9.13-5.59c-9.76-6.78-16.77-16.22-20.35-27.4-7.55-10.68-14.05-21.74-20.37-34.63l-.06-.12c-12.42-26.1-20.9-53.42-25.92-83.53-6.7-40.18-4.42-80.28,6.77-119.2,13.63-47.38,39.36-89.48,74.43-121.77l.3-.26,7.54-6.49-22.87-70.75c-4.67-14.44-1.98-30.12,7.18-41.95,5.86-7.57,13.44-13.44,23.84-18.46,22.54-10.88,46.29-17.72,70.59-20.3,26.27-2.8,50.48,1.54,70.89,12.59,5.85-9.58,16.66-18.92,36.2-24.5,36.7-10.49,74.02-11.36,102.39-2.4,13.37,4.22,24.95,11.2,34.57,20.81,8.22-11.89,19.7-22.06,38.8-26.64,16.12-3.86,33.11-3.99,51.94-.4,12.03,2.3,22.41,7.43,30.61,15.05,7.66-5.15,17.15-8.03,28.38-8.6,11.48-.58,24.91,1.32,39.92,5.66l.51.16c12.7,4.29,22.1,12.88,26.85,24.25,6.11.35,12.39,1.36,18.92,3.04,18.99-23.12,50.23-13.17,61.2-9.68,10.06,3.2,21.54,7.51,30.43,15.14,10.03,8.62,15.13,20.1,15.14,34.12v1.28s-5.41,24.64-5.41,24.64l-19.7,65.3c36.5,29.12,62.94,67.92,76.7,112.71,13.92,45.32,14.58,95.3,1.89,144.54-11.1,43.08-30.68,80.75-58.21,111.97l-.49.52-14.37,14.47c-12.49,12.58-33.46,25.93-52.18,33.21-20.94,8.15-42.47,12.86-65.82,14.4-22.93,1.51-46.24.87-73.37-2.01l-74.58-7.92c-33.24-3.53-65.11-4.74-97.44-3.69-17.41.56-33.67,2.19-51.18,5.1l-47.7,7.94c-19.2,3.2-42.51,5.82-67.25,5.82ZM417.1,763.5l9.1,5.54.43.32c12.06,8.9,23.81,15.24,36.96,19.93,26.36,9.41,72.39,18.2,141.98,6.61l47.7-7.94c18.59-3.1,35.87-4.82,54.37-5.42,33.46-1.08,66.42.17,100.79,3.81l74.58,7.92c25.71,2.73,47.71,3.34,69.22,1.93,20.85-1.37,40.03-5.56,58.64-12.8,15.38-5.98,33.81-17.65,43.84-27.75l14.11-14.21c24.9-28.33,42.65-62.62,52.78-101.92,11.6-45,11.05-90.53-1.59-131.67-13.08-42.59-38.94-79.14-74.78-105.7l-6.73-4.99,24.34-80.68,4.52-20.69c-.44-12.37-7.68-18.64-28.86-25.38-24.76-7.89-32.94-3.38-38.11,6.45l-4.77,9.07-9.76-3.3c-10.61-3.59-19.63-5.01-28.41-4.48l-10.84.66-1.75-10.64c-1.54-9.38-8.14-13.57-13.5-15.43-18.56-5.34-42.66-8.84-52.69,4.52l-10.32,13.74-9.39-14.38c-5.35-8.18-13.44-13.36-24.05-15.39-15.39-2.94-29.04-2.89-41.75.16-14.27,3.42-22.47,10.9-31.33,28.56l-3.26,6.51-7.33.1c-7.05.09-11.85-5.63-13.14-7.39-8.07-10.99-18.29-18.33-31.24-22.42-23.61-7.46-56.68-6.49-88.46,2.59-22.6,6.46-24.43,17.76-25.03,21.47l-3.19,19.63-15.95-12.03c-17.85-13.47-41.02-19.13-67.01-16.36-21.53,2.29-42.6,8.36-62.64,18.04-6.93,3.35-11.79,7.02-15.3,11.55-4.36,5.63-5.61,13.15-3.35,20.13l27.72,85.74-19.36,16.67c-31.77,29.31-55.12,67.58-67.52,110.7-10.21,35.5-12.29,72.09-6.17,108.76,4.65,27.88,12.47,53.12,23.91,77.17,6.03,12.3,12.21,22.72,19.45,32.78l1.24,1.73.57,2.05c1.85,6.67,5.65,12.09,11.32,16.11ZM955.53,609.03c-.42-.31-.88-.6-1.38-.87l11.65-20.86c1.39.76,2.72,1.61,3.96,2.52l-14.23,19.21ZM953.33,607.74c-.59-.28-1.23-.54-1.91-.79l8.13-22.44c1.45.52,2.86,1.1,4.19,1.74l-10.41,21.49ZM945.23,605.47c-2.77-.42-5.95-.63-9.44-.63l.03-23.85c4.67,0,9.04.31,12.99.9l-3.58,23.58Z"/>
  <path class="st9" d="M1054.12,389.94l22.27-74.36,4.95-22.87c-.03-23.29-17.03-31.96-37.56-38.55-21.31-6.83-41.8-8.8-52.91,12.5-10.88-3.71-21.86-5.88-33.33-5.18-2.02-12.37-10.1-21.27-21.92-25.29-22.46-6.55-52.07-10.53-66.56,8.91-7.58-11.68-18.97-18.42-32.16-20.95-15.89-3.06-31.49-3.53-47.27.28-20.18,4.87-30.36,16.81-39.62,35.43-.78.01-2.39-1.29-3.29-2.53-9.57-13.14-22.12-22.27-37.65-27.21-29.62-9.42-66.45-6.06-96.3,2.54-16.21,4.67-31.02,13.81-33.88,31.55-21.84-16.61-48.76-21.99-76.26-19.04-23.52,2.52-46.01,9.17-67.23,19.49-7.73,3.76-14.52,8.44-19.75,15.26-6.8,8.84-8.83,20.6-5.31,31.56l25.53,79.56-13.65,11.84c-34.44,31.95-58.77,72.97-71.7,118.25-10.85,37.99-12.99,76.91-6.53,115.89,4.74,28.6,12.83,55.62,25.16,81.73,6.08,12.51,12.69,23.93,20.7,35.14,2.66,9.69,8.25,17.57,16.44,23.3l9.06,5.56c12.52,9.3,25.54,16.59,40.43,21.94,45.85,16.5,100.86,15.41,149.4,7.27l48.14-8.08c17.88-3,35-4.75,53.26-5.35,33.68-1.1,66.52.23,100.03,3.82l75.27,8.06c24.22,2.59,47.65,3.61,71.95,2,21.89-1.45,42.58-5.9,62.8-13.83,16.11-6.32,36.45-18.82,48.45-30.99l14.5-14.71c27.33-31.23,45.81-68.57,56.12-108.87,24.36-95.22-1.85-194.54-81.56-254.07ZM963.51,600.23c-.85-.63-1.75-1.2-2.7-1.72.94.52,1.85,1.1,2.7,1.72ZM959.37,597.76c-.99-.47-2.01-.9-3.08-1.28,1.06.38,2.09.81,3.08,1.28ZM947.74,594.39c-3.62-.55-7.44-.77-11.32-.78,3.88,0,7.7.23,11.32.78Z"/>
  <path class="st6" d="M970.68,483.06c-3.06,1.35-6.32.29-7.92-1.65-1.43-1.73-2.03-6.75.62-8.54,10.15-6.87,21.44-12.08,33.03-16.53,3.88-1.49,7.76,1.25,8.72,4.37,1.22,3.95-.64,7.41-4.6,9.16l-29.86,13.2Z"/>
  <path class="st6" d="M1002.19,507.88l-32.55-3.98c-3.78-.46-5.47-4.75-4.72-7.81.81-3.31,3.89-5.4,7.77-5.23,11.25.51,22.21,1.57,33.19,3.8,3.82.77,4.96,5.03,4.39,8.09-.69,3.69-3.58,5.69-8.08,5.14Z"/>
  <path class="st6" d="M534.38,472.39c2.9,1.75,3.07,6.06,2.03,8.2-1.21,2.5-4.82,4.31-8.01,2.89l-30.03-13.34c-4.04-1.8-6.17-4.6-5.17-8.76.87-3.64,5.14-6.63,9.35-4.89,10.97,4.52,21.45,9.64,31.83,15.9Z"/>
  <path class="st6" d="M497.77,507.99c-4.3.7-7.79-.49-9.15-4.09-.94-2.48-.2-7.88,3.66-8.87,10.81-2.78,22.03-3.13,33.38-3.98,4.06-.3,7.93,2.07,8.3,5.89.44,4.61-3.14,7.37-7.55,7.59-9.55.48-18.8,1.86-28.65,3.46Z"/>
  <g>
    <path class="st7" d="M1012.13,448.64c-.15,0-.3,0-.46,0-12.07-.17-23.54-2.13-34.09-5.83-8.91-3.13-15.95-9.77-19.8-18.29-5.64,5.97-13.62,9.56-22.81,9.99l-1.34.06-1.33-.14c-1.29-.13-2.6-.26-3.92-.38-8.67-.82-18.49-1.75-27.31-5.22-13.65-5.36-21.92-15.87-23.27-29.59l-3.53-35.63-8.37-89.6c-.75-8.01.75-16.09,4.21-22.75,4.02-7.72,13.08-17.04,33.45-17.64,12.29-.37,24.25,2.63,28.81,3.93,13.26,3.79,22.1,14.91,23.66,29.75l.11,1.02-.05,6.19c2.31-.68,4.76-1.11,7.32-1.28l1.43-.09,3.36.31c6.19.57,13.21,1.21,19.77,3.88,1.58.65,3.08,1.39,4.5,2.23l.4-1.94c3.32-16.06,17.59-26.44,33.95-24.67,12.09,1.31,23.74,4.75,34.61,10.22,13.42,6.76,20.39,19.9,19.12,36.06l-.13,1.7-.45,1.65c-12.95,47.27-24.75,86.68-37.14,124.01-4.39,13.24-16.68,22.05-30.67,22.05ZM1001.83,411.83c2.5.37,5.06.61,7.69.73,11.68-35.39,22.89-72.87,35.14-117.49,0,0,0-.01,0-.02-5.55-2.73-11.41-4.64-17.48-5.71l-25.36,122.49ZM931.75,398.21h0s.07,0,.1,0l4.71-11.57-4.81,11.56ZM913.54,395.08c1.21.61,3.18,1.12,5.45,1.54l1.1-125.08c-7.86-1.95-14.83-2.26-18.4-1.72,0,.27,0,.56.03.85l8.36,89.55,3.45,34.86Z"/>
    <path class="st7" d="M483.28,455.4c-15.66,0-28.8-9.58-33.62-24.62l-11-34.33-25.03-80.62c-5.53-17.82,1.92-35.83,18.54-44.81,34.7-18.74,74.01-26.19,105.15-19.91,24.53,4.94,45.7,19.29,59.6,40.4,15.57,23.65,21.02,53.72,14.96,82.5-5.59,26.55-22.98,49.3-47.71,62.43l-.6.32-16.51,7.22-.68.24c-20.01,6.89-40.92,10.66-62.13,11.18-.32,0-.64.01-.96.01ZM484.05,420.04h0s0,0,0,0ZM483.1,419.39h0,0ZM473.02,385.7l10.8,33.69c17.12-.47,34-3.49,50.16-8.99l13.88-6.07c15.19-8.25,25.41-21.64,28.8-37.74,4.1-19.46.52-39.61-9.8-55.29-6.07-9.22-17.35-21.02-36.64-24.91-17.88-3.6-48.52-1.21-80.93,16.3-1.74.94-1.58,1.45-1.27,2.46l25.01,80.54ZM493.74,406.86l-25.21-96.93,14.71-5.9c27.32-10.95,51.63-7.32,66.71,9.94,11.26,12.9,16.13,30.43,13.35,48.1-3.82,24.32-23.58,40.07-54.2,43.21l-15.37,1.57ZM511.94,333.83l8.31,31.95c6.54-3.25,7.21-7.5,7.49-9.29h0c1.1-7.01-.73-14.05-4.91-18.83-2.63-3.02-6.67-3.93-10.89-3.82Z"/>
    <path class="st7" d="M634.86,428.42c-3.09,0-6.17-.14-9.27-.43-14.78-1.36-26.34-12.46-28.12-26.99l-8.42-69-6.75-56.79c-2-16.81,8.26-32.35,24.94-37.78,23.05-7.51,46.63-10.86,70.08-9.94,13.51.52,26.36,3.72,38.2,9.51,16.33,7.98,28.67,21.89,34.77,39.18,5.55,15.75,5.76,33.7.57,50.53-3.29,10.69-8.92,20.23-16.59,28.22l11.19,16.04c4.95,7.1,6.82,15.8,5.14,23.87-1.55,7.42-6.91,17.55-23.64,23.68-7.32,2.68-16.36,4.39-24.82,4.69-10.68.38-20.32-3.89-26.28-11.51-4.17,7.38-11.34,12.82-20.27,14.6-7.05,1.41-13.9,2.11-20.74,2.11ZM632.69,392.38c3.56.12,7.13-.06,10.79-.53l-3.18-39.16,13.98-4.16c3.86-1.15,8.32-1.71,12.88-1.65l9.62.15,25.94,40.12c3.32-.25,6.49-.83,9.07-1.52l-27.41-39.29,16.11-10.02c8.02-4.99,13.4-11.78,15.98-20.17,4.97-16.16,1.86-37.7-16.74-46.78-7.42-3.62-15.2-5.55-23.79-5.88-19.19-.75-38.54,2.01-57.53,8.2-.09.03-.17.06-.25.09l6.65,55.95,7.89,64.68ZM639.6,346.4l-6.01-67.36,16.27-2.87c11.31-2,32.37-5.71,46.98,7.58,9,8.19,12.57,20.68,9.54,33.41h0c-1.65,6.94-7.04,19.4-24.56,24.94-8.44,2.67-17.59,3.11-24.95,3.47l-17.26.84ZM672.93,310.6h0,0Z"/>
    <path class="st7" d="M859.58,425.27c-6.68,0-12.43-.76-15.45-1.25-11.95-1.95-21.86-11-24.66-22.52l-.88-3.64-14.99-.61-.54,1.77c-3.82,12.65-15.14,21.46-28.17,21.91-11.79.41-22.14-1.18-31.63-4.84-15.27-5.9-23.83-21.77-19.91-36.92l15.88-61.28c5.18-20,11.32-40.28,18.75-62,5.26-15.37,17.1-26,32.48-29.16,17.47-3.6,34.61-3.06,50.94,1.59,14.17,4.04,24.55,14.05,28.48,27.48l6.94,23.77c9.26,36.05,16.29,71.26,22.51,103.94,3,15.78-2.51,25.7-7.66,31.24-7.9,8.49-21.21,10.51-32.08,10.51ZM853.47,388.95c3.87.39,7.54.38,10.27.15-6.04-31.69-12.85-65.71-21.72-100.28l-6.7-22.91c-.4-1.36-1.67-2.36-3.78-2.96-10.71-3.05-22.09-3.37-33.82-.95-2.06.42-4.19,1.2-5.68,5.56-7.13,20.84-13.01,40.26-17.96,59.37l-14.67,56.63c3.11.86,6.48,1.32,10.29,1.42l7.5-24.83,69.96,2.84,6.31,25.95ZM849.25,359.7l-74.8-1.9,20.51-68.84,4.43-4.9c3.46-3.82,8.38-6,13.53-6h.05c8.52.02,13.54,5.63,15.19,7.47l2.93,3.28,18.17,70.9Z"/>
  </g>
  <path class="st1" d="M1051.62,738.22l-43.44-50.33c17.77-8.87,31.33-21.7,39.09-39.3,10.9-24.7,9.09-52.81-4.39-76.02-26.07-38.64-70.88-43.7-114.87-42.52-24.37.65-48.11,2.67-71.82,8.28-6.37,1.51-12.46,3.45-17.32,7.89-4.84,4.41-8.08,11.39-8.07,18.59l.18,190.91c.01,14.59,6.74,23.3,20.74,25.7,14.62,2.5,28.97,2.21,43.6-.18,10.46-1.71,17.93-10.04,18.03-20.97l.46-53.5,16.27-.4,43.3,62c6.17,8.83,15.67,12.28,26.06,11.66,17.52-1.05,40.31-8.25,52.63-20.59,5.16-6.69,5.05-14.81-.47-21.21ZM975.42,624.37c-2.83,14.51-18.93,22.24-32.63,22.52l-29.18.61.04-51.45c17.93-2.65,43.75-5.48,55.75,6.33,5.72,5.62,7.59,13.95,6.02,22Z"/>
  <g>
    <path class="st5" d="M1053.04,739.88l-43.44-50.33c17.77-8.87,31.33-21.7,39.09-39.3,10.9-24.7,9.09-52.81-4.39-76.02-26.07-38.64-70.88-43.7-114.87-42.52-24.37.65-48.11,2.67-71.82,8.28-6.37,1.51-12.46,3.45-17.32,7.89-4.84,4.41-8.08,11.39-8.07,18.59l.18,190.91c.01,14.59,6.74,23.3,20.74,25.7,14.62,2.5,28.97,2.21,43.6-.18,10.46-1.71,17.93-10.04,18.03-20.97l.46-53.5,16.27-.4,43.3,62c6.17,8.83,15.67,12.28,26.06,11.66,17.52-1.05,40.31-8.25,52.63-20.59,5.16-6.69,5.05-14.81-.47-21.21ZM976.84,626.03c-2.83,14.51-18.93,22.24-32.63,22.52l-29.18.61.04-51.45c17.93-2.65,43.75-5.48,55.75,6.33,5.72,5.62,7.59,13.95,6.02,22Z"/>
    <g>
      <path class="st2" d="M832.61,757.34l-.18-190.91c0-7.2,3.24-14.18,8.07-18.59,4.86-4.43,10.94-6.38,17.32-7.89,23.7-5.61,47.44-7.62,71.82-8.28,38.63-1.04,77.9,2.74,104.55,29.86-26.64-30.27-67.55-34.41-107.78-33.34-24.37.65-48.11,2.67-71.82,8.28-6.37,1.51-12.46,3.45-17.32,7.89-4.84,4.41-8.08,11.39-8.07,18.59l.18,190.91c0,9.02,2.59,15.79,7.86,20.21-3.09-4.23-4.62-9.81-4.63-16.73Z"/>
      <path class="st2" d="M977.04,625.98c1.57-8.05-.31-16.37-6.02-22-.35-.34-.72-.67-1.09-.99,4.02,5.44,5.23,12.58,3.88,19.51-2.83,14.51-18.93,22.24-32.63,22.52l-25.94.54v3.55s29.18-.61,29.18-.61c13.7-.28,29.8-8.02,32.63-22.52Z"/>
      <path class="st2" d="M975.01,769.98l-43.3-62-.79.02,40.85,58.5c1.26,1.8,2.65,3.36,4.17,4.72-.32-.41-.63-.81-.93-1.24Z"/>
    </g>
  </g>
  <path class="st0" d="M778.45,541.07c-17.66-3.2-35.34-3.17-53.1-.22-10.47,1.74-18.5,9.96-18.55,21.34l-.81,186.24c-.06,14.95,3.64,27.75,18.69,30.87,17.28,3.58,34.78,3.8,52.85.85,11.55-1.89,19.88-10.84,19.9-22.92l.24-191.19c.02-13.17-6.22-22.6-19.22-24.96Z"/>
  <g>
    <path class="st5" d="M781.68,544.3c-17.66-3.2-35.34-3.17-53.1-.22-10.47,1.74-18.5,9.96-18.55,21.34l-.81,186.24c-.06,14.95,3.64,27.75,18.69,30.87,17.28,3.58,34.78,3.8,52.85.85,11.55-1.89,19.88-10.84,19.9-22.92l.24-191.19c.02-13.17-6.22-22.6-19.22-24.96Z"/>
    <path class="st2" d="M709.23,751.66l.81-186.24c.05-11.39,8.08-19.6,18.55-21.34,17.75-2.95,35.44-2.98,53.1.22,4.66.84,8.43,2.61,11.37,5.11-3.18-4.39-8.02-7.4-14.61-8.59-17.66-3.2-35.34-3.17-53.1-.22-10.47,1.74-18.5,9.96-18.55,21.34l-.81,186.24c-.05,10.83,1.89,20.53,8.68,26.24-4.19-5.78-5.48-13.89-5.44-22.76Z"/>
  </g>
  <path class="st0" d="M658.79,680.98l-29.04-68.73-26.76-59.63c-4.97-11.07-14.62-17.61-26.23-20.07-21.98-4.67-44.31-5.23-66.23-.44-11.13,2.43-20.7,8.69-25.42,19.09l-19.46,42.85c-19.52,45.84-38.1,91.53-55.5,138.1-4.81,12.89.38,25.49,11.95,32.05,15.41,8.75,32.82,13.15,50.44,13.26,9.97-1.03,17.11-6.49,20.4-15.67l8.86-24.7,88.05.52,10.3,26.58c3.62,9.34,11.59,14.48,21.05,15.96,16.46,2.09,33.12.98,48.84-4.31,6.94-2.34,13.24-6.74,15.14-14.07.95-3.69,1.59-9.78.1-13.56l-26.49-67.24ZM570.41,676.76l-51.13-.23c-1.03,0-2.75-1.96-2.38-2.97l23.27-62.38c.36-.95,2.14-2.27,3.02-2.35,1.04-.1,2.92,1.25,3.44,2.53l25.32,62.83-1.54,2.57Z"/>
  <g>
    <path class="st5" d="M662.03,684.21l-29.04-68.73-26.76-59.63c-4.97-11.07-14.62-17.61-26.23-20.07-21.98-4.67-44.31-5.23-66.23-.44-11.13,2.43-20.7,8.69-25.42,19.09l-19.46,42.85c-19.52,45.84-38.1,91.53-55.5,138.1-4.81,12.89.38,25.49,11.95,32.05,15.41,8.75,32.82,13.15,50.44,13.26,9.97-1.03,17.11-6.49,20.4-15.67l8.86-24.7,88.05.52,10.3,26.58c3.62,9.34,11.59,14.48,21.05,15.96,16.46,2.09,33.12.98,48.84-4.31,6.94-2.34,13.24-6.74,15.14-14.07.95-3.69,1.59-9.78.1-13.56l-26.49-67.24ZM573.64,680l-51.13-.23c-1.03,0-2.75-1.96-2.38-2.97l23.27-62.38c.36-.95,2.14-2.27,3.02-2.35,1.04-.1,2.92,1.25,3.44,2.53l25.32,62.83-1.54,2.57Z"/>
    <g>
      <path class="st2" d="M522.51,679.77l51.13.23,1.54-2.57-25.32-62.83c-.43-1.06-1.77-2.14-2.82-2.44l24.9,61.79-1.54,2.57-50.09-.22-.19.51c-.38,1.01,1.35,2.96,2.38,2.97Z"/>
      <path class="st2" d="M413.38,735.39c17.39-46.57,35.98-92.26,55.5-138.1l19.46-42.85c4.72-10.4,14.29-16.66,25.42-19.09,21.92-4.79,44.25-4.23,66.23.44,7.13,1.51,13.51,4.57,18.53,9.25-5.36-6.69-13-10.87-21.76-12.73-21.98-4.67-44.31-5.23-66.23-.44-11.13,2.43-20.7,8.69-25.42,19.09l-19.46,42.85c-19.52,45.84-38.1,91.53-55.5,138.1-4.01,10.72-1.08,21.24,6.68,28.26-5.26-6.78-6.84-15.7-3.45-24.78Z"/>
      <path class="st2" d="M603.38,767.43l-10.3-26.58h-1.89s8.96,23.1,8.96,23.1c1.5,3.88,3.77,7.02,6.57,9.49-1.33-1.77-2.46-3.76-3.33-6.01Z"/>
    </g>
  </g>
  <g>
    <path class="st6" d="M1060.87,298.03c-11.44,41.75-23.38,82.46-36.86,123.1-2.03,6.11-7.69,9.8-13.79,9.72-9.78-.13-19.35-1.65-28.38-4.82-6.22-2.18-10.02-7.73-10.85-13.96l-7.99-46.61-17.41,42.81c-2.26,5.56-7.35,8.19-13.16,8.46-16.4-1.68-36.76-2.13-38.44-19.06l-3.52-35.53-8.37-89.6c-.41-4.44.38-9.16,2.26-12.77,5.85-11.24,28.39-8.41,41.35-4.71,6.73,1.92,9.98,7.45,10.7,14.32l-.6,68.33,16.1-38.69c1.98-4.76,5.66-7.29,10.92-7.63,11.52,1.09,22.5,1.42,24.74,12.57l7.68,42.76,13.51-65.26c1.45-6.98,7.46-11.18,14.39-10.43,10.04,1.09,19.59,3.94,28.45,8.4,7.09,3.57,9.94,9.98,9.27,18.57Z"/>
    <path class="st6" d="M538.81,427.4c-18.33,6.31-37.29,9.72-56.72,10.21-8.25.2-14.57-4.56-16.99-12.11l-10.95-34.17-25.03-80.62c-3.04-9.79,1.12-18.89,9.91-23.64,26.9-14.53,62.73-24.21,93.04-18.11,46.59,9.38,69.8,57.39,60.5,101.55-4.64,22.06-18.86,39.79-38.54,50.24l-15.22,6.65ZM543.82,359.49c1.87-11.9-1.15-24.33-9.13-33.47-11.6-13.28-30.45-11.49-46.45-5.08l17.33,66.64c18.26-1.87,35.27-9.13,38.25-28.1Z"/>
    <path class="st6" d="M665.19,365.07c-2.66-.04-5.28.25-7.47.9l2.38,29.32c.53,6.56-3.3,12.28-9.72,13.57-8.21,1.64-16.41,2.18-24.84,1.41-6.04-.55-11.12-4.92-11.89-11.24l-8.42-69-6.74-56.74c-1.03-8.67,4.42-15.87,12.64-18.54,20.5-6.68,42.15-9.91,63.81-9.07,11.01.43,21.35,2.98,30.99,7.69,25.72,12.56,34.12,42,26.04,68.25-3.91,12.7-12.14,22.98-23.67,30.16l20.72,29.7c1.91,2.74,3.01,6.38,2.28,9.89-1.99,9.55-20.08,13.66-31.47,14.06-4.58.16-9.51-1.5-12.01-5.37l-22.62-34.99ZM687.16,313.18c1.38-5.79.29-11.89-4.14-15.92-7.66-6.97-20.68-5.12-31.73-3.17l3.01,33.69c13.67-.66,29.76-1.54,32.87-14.6Z"/>
    <path class="st6" d="M831.18,380.64l-42.48-1.73-4.57,15.12c-1.58,5.23-6.1,8.93-11.56,9.12-8.52.29-16.58-.57-24.53-3.64-5.82-2.25-10.77-8.65-8.96-15.61l15.88-61.28c5.38-20.76,11.46-40.54,18.35-60.68,3.13-9.15,9.55-15.4,19.08-17.36,14.07-2.9,28.54-2.67,42.38,1.27,7.8,2.22,13.89,7.56,16.13,15.22l6.78,23.2c8.77,34.15,15.67,68.16,22.26,102.83,1.06,5.57.88,11.27-3.16,15.61-5.2,5.59-21.51,5.38-31.45,3.75-4.69-.77-8.97-4.49-10.07-9l-4.09-16.82ZM824.2,341.31l-11.16-43.57c-.56-.62-1.66-1.78-2-1.41l-1.7,1.88-12.63,42.4,27.49.7Z"/>
  </g>
  <g>
    <path class="st4" d="M891.74,525.26l-96.49-1.75c-59.48-1.08-118.34-.1-177.78,2.07-28.45,1.04-52.29-17.89-54.9-46.34-2.46-26.8,17.07-52.26,45.47-54.62,72.97-6.08,145.92-6.85,219.33-4.24,24.13.86,47.39,1.1,70.95,4.31,26.26,3.58,44.27,26.92,42.92,52.67s-22.12,48.41-49.49,47.92Z"/>
    <path class="st3" d="M561.47,482.47c-2.46-26.8,17.07-52.26,45.47-54.62,72.97-6.08,145.92-6.85,219.33-4.24,24.13.86,47.39,1.1,70.95,4.31,20.36,2.77,35.75,17.43,41.01,35.87-4.31-19.94-20.29-36.17-41.82-39.1-23.56-3.21-46.81-3.45-70.95-4.31-73.4-2.61-146.36-1.83-219.33,4.24-28.4,2.37-47.93,27.82-45.47,54.62.31,3.42.94,6.69,1.84,9.82-.47-2.13-.82-4.32-1.03-6.58Z"/>
  </g>
  <g id="_x30_Vg2an.tif">
    <g>
      <path class="st8" d="M801.85,440.44c6.91.84,3.38,13.94,5.07,26.18l17.64.23.04-17.16c0-1.82.48-4.78,2.28-5.79,4.07-2.31,9.97-1.97,13.98.04,3.86,1.94,2.7,5.9,2.66,9.1,0,0-.6,44.1-.05,47.66.44,2.87-1.21,4.78-4.24,6.16-3.29,1.5-8.14,1.41-11.64.05-3.95-1.53-3.32-5.86-3.3-9.15l.08-14.45h-17.7s-.25,18.41-.25,18.41c-.07,5.1-6.49,6.37-10.97,5.69-3.58-.54-7.4-2.29-7.4-6.44.27-9.46.4-19.23.34-29.28-.06-10.02-2.8-29.01.95-30.39,4.42-1.63,7.85-1.41,12.52-.84Z"/>
      <path class="st8" d="M899.39,455.45c0,3.93-1.36,6.25-4.1,6.97-7.03.34-14.03.28-21-.19l-.2,7.7c6.79-.1,24.99-1.41,24.97,1.73-.1,20.11-.51,10.52-25.03,11.4-.66,2.06-1.01,6.71-.64,8.94,7.29-.47,14.46.04,21.51,1.55,5.48,2.02,5.17,16.46-2.02,16.38,0,0-36.29.62-38.43-4.71-1.51-3.77-.89-7.02-.83-10.8,0,0,1.47-35.13.98-40.76-.27-3.05.69-8.62,4.36-9.19,11.17-1.74,37.02-.41,39.36,2.83,1.29,1.79,1.07,8.13,1.07,8.13Z"/>
      <path class="st8" d="M777.4,441.63c6.84,1.65,4.66,15.52,1.34,16.59-5.33,1.72-14.18-1.04-14.97,1.65-.08.26.38,40.83.38,40.83-.03,4.97-4.45,6.49-8.84,6.1-2.62-.24-9.11.23-9.2-3.59,0,0,1.42-39.14-1.02-44.36l-13.09-.39c-4.08-.99-4.63-5.95-4.19-9.36s1.16-5.96,4.04-7.47c0,0,34.48-2.68,45.54,0Z"/>
      <g>
        <path class="st8" d="M695.96,446.65s.15,45.92-.6,58.03c-.25,4.05-13.46,4.77-16.22.66l-23.61-35.19c-.74,3.99.4,33.95.4,33.95.69,6.44-15.52,6.57-15.59,2.61-.1-6.51-.85-28.1-.98-43.63-.08-9.36-1.64-16.24,1.48-16.87,5.31-1.06,13.6-2.63,17.22,1.57,8.23,9.57,13.51,18.13,20.62,28.17.65-1.62.31-9.9.33-18.21.02-7.82-1.94-15.51,4.07-16.11,0,0,13.02-2.72,12.89,5.03Z"/>
        <path class="st8" d="M611.29,506.62c-1.01-15.67-1.03-53.36-1.03-56.01,0-5.16,18.66-6.7,18.66,0s1.09,55.49,1.09,58.41-18.54,4.36-18.72-2.41Z"/>
      </g>
    </g>
  </g>
  <g>
    <path class="st5" d="M675.84,847.38l4.92,13.62,15.91,1.51c4.82,0,6.83,6.17,2.93,9.01l-12.87,9.35,4.92,15.13c1.49,4.59-3.76,8.4-7.66,5.57l-12.87-9.35-12.87,9.35c-3.9,2.84-9.15-.98-7.66-5.57l4.92-15.13-12.87-9.35c-3.9-2.84-1.9-9.01,2.93-9.01l15.91-1.51,4.92-13.62c1.49-4.59,7.98-4.59,9.47,0Z"/>
    <g>
      <path class="st2" d="M680.84,861.08l15.91,1.51c1.26,0,2.32.42,3.14,1.09-.87-1.09-2.19-1.85-3.87-1.85l-15.43-1.46.25.71Z"/>
      <path class="st2" d="M645.63,862.59l15.91-1.51,4.92-13.62c1.18-3.62,5.46-4.37,7.95-2.28-2.27-2.98-7.38-2.48-8.68,1.53l-4.92,13.62-15.91,1.51c-4.69,0-6.7,5.82-3.23,8.75-2.4-3.07-.36-8,3.96-8Z"/>
      <path class="st2" d="M650.66,896.07l4.92-15.13-.79-.57-4.86,14.95c-.69,2.14.08,4.1,1.5,5.3-.93-1.2-1.33-2.82-.77-4.55Z"/>
    </g>
  </g>
  <g>
    <path class="st5" d="M756.89,847.38l4.92,13.62,15.91,1.51c4.82,0,6.83,6.17,2.93,9.01l-12.87,9.35,4.92,15.13c1.49,4.59-3.76,8.4-7.66,5.57l-12.87-9.35-12.87,9.35c-3.9,2.84-9.15-.98-7.66-5.57l4.92-15.13-12.87-9.35c-3.9-2.84-1.9-9.01,2.93-9.01l15.91-1.51,4.92-13.62c1.49-4.59,7.98-4.59,9.47,0Z"/>
    <g>
      <path class="st2" d="M761.88,861.08l15.91,1.51c1.26,0,2.32.42,3.14,1.09-.87-1.09-2.19-1.85-3.87-1.85l-15.43-1.46.25.71Z"/>
      <path class="st2" d="M726.68,862.59l15.91-1.51,4.92-13.62c1.18-3.62,5.46-4.37,7.95-2.28-2.27-2.98-7.38-2.48-8.68,1.53l-4.92,13.62-15.91,1.51c-4.69,0-6.7,5.82-3.23,8.75-2.4-3.07-.36-8,3.96-8Z"/>
      <path class="st2" d="M731.7,896.07l4.92-15.13-.79-.57-4.86,14.95c-.69,2.14.08,4.1,1.5,5.3-.93-1.2-1.33-2.82-.77-4.55Z"/>
    </g>
  </g>
  <g>
    <path class="st5" d="M837.93,847.38l4.92,13.62,15.91,1.51c4.82,0,6.83,6.17,2.93,9.01l-12.87,9.35,4.92,15.13c1.49,4.59-3.76,8.4-7.66,5.57l-12.87-9.35-12.87,9.35c-3.9,2.84-9.15-.98-7.66-5.57l4.92-15.13-12.87-9.35c-3.9-2.84-1.9-9.01,2.93-9.01l15.91-1.51,4.92-13.62c1.49-4.59,7.98-4.59,9.47,0Z"/>
    <g>
      <path class="st2" d="M842.93,861.08l15.91,1.51c1.26,0,2.32.42,3.14,1.09-.87-1.09-2.19-1.85-3.87-1.85l-15.43-1.46.25.71Z"/>
      <path class="st2" d="M807.72,862.59l15.91-1.51,4.92-13.62c1.18-3.62,5.46-4.37,7.95-2.28-2.27-2.98-7.38-2.48-8.68,1.53l-4.92,13.62-15.91,1.51c-4.69,0-6.7,5.82-3.23,8.75-2.4-3.07-.36-8,3.96-8Z"/>
      <path class="st2" d="M812.74,896.07l4.92-15.13-.79-.57-4.86,14.95c-.69,2.14.08,4.1,1.5,5.3-.93-1.2-1.33-2.82-.77-4.55Z"/>
    </g>
  </g>
</svg>